<svg xmlns="http://www.w3.org/2000/svg" height="800" width="1200" version="1.0" viewBox="-359.98755 -260.862 3119.8921 1565.172"><path d="M1159.104 182.81v182.8l19.1 28.4c10.5 15.6 36.9 54.9 58.7 87.4 21.8 32.5 53.5 79.8 70.5 105.1 17 25.3 38.1 56.9 47 70.2l16.2 24.2 128.8.1c70.8 0 128.7-.3 128.7-.6 0-.4-8.4-12.9-18.7-27.8-10.3-14.9-37-53.7-59.3-86.1-70.1-101.8-135.1-196.2-150.5-218.5-8.2-11.8-24.3-35.2-35.8-52-11.6-16.8-28-40.6-36.5-53-8.6-12.4-36.3-52.7-61.7-89.5-25.4-36.9-59.5-86.5-75.9-110.3-16.4-23.7-30-43.2-30.2-43.2-.2 0-.4 82.3-.4 182.8z" fill="#d21241"/><path d="M1129.6 43.5c-16.5 23.9-50.7 73.6-76.1 110.5-25.4 36.8-53.1 77.1-61.7 89.5-8.5 12.4-24.9 36.2-36.5 53-11.5 16.8-27.6 40.2-35.8 52C904.1 370.8 839.1 465.2 769 567c-22.3 32.4-49 71.2-59.3 86.1-10.3 14.9-18.7 27.4-18.7 27.8 0 .3 57.9.6 128.8.6l128.7-.1 16.2-24.2c16.6-24.9 62.7-93.6 127.6-190.2 20.3-30.3 43.8-65.4 52.3-78l15.4-23-.2-183-.3-183zm1229.6 875.1c-27.2 13.5-17.5 54.4 12.8 54.2 15.3 0 26.7-10.8 27.8-26.3.7-9.6-1.7-16-8.2-22.5-9-9.1-21.1-11.1-32.4-5.4zm24.9 5.4c12.7 9 13.7 28.2 2.1 38.7-13.7 12.4-35.2 3-36.9-16.1-1-10.3 4.4-20.2 13.2-24.3 6.3-2.9 16.2-2.1 21.6 1.7z"/><path d="M2364.3 928.2l-3.3.4v16c0 13.3.2 16.1 1.5 16.5 1.7.7 4.6-1.3 4.4-3-.1-.6-.1-3.3 0-5.9l.1-4.8 3.7.3c4.2.3 5.8 2.5 6.8 9 .5 3 1.1 3.9 3.1 4.4 1.4.4 2.7.4 3 .2.9-.9-1.7-11.4-3.4-13.7-1.7-2.4-1.7-2.5.6-4.8 3.2-3.2 2.8-9.8-.8-12.4-2.6-1.9-10-2.9-15.7-2.2zm11.7 6.3c2.4 2.4 2.4 2.9.4 5.8-1.1 1.6-2.5 2.2-5.4 2.2-4.3 0-4.7-.5-4.2-6.1.4-3.7.6-3.9 3.8-3.9 2.1 0 4.2.8 5.4 2zM914.5 921.7c-51.1 5-84.5 29.5-84.5 61.7.1 29.5 24.9 50.2 69 57.6 13.4 2.3 41.8 3 57.8 1.6 11.9-1.1 23.6-3.2 24.7-4.3.5-.5-5.9-23.6-6.8-24.4-.3-.3-3.1 0-6.4.6-3.2.6-13.2 1.4-22.3 1.7-14 .4-17.9.2-26.1-1.5-23.2-4.8-35-16.1-35.1-33.3-.1-16.2 12.7-28.2 34.6-32.4 13.1-2.5 40-1.6 54.7 1.8.6.1 3.3-5.4 6-12.2 3.8-9.3 4.7-12.6 3.8-13.2-1.7-1-11.3-2.7-23.4-3.9-11-1.2-33.5-1.1-46 .2zm725-.5c-7 .8-19.5 3.6-27 6-29.5 9.5-47.6 28.7-49.2 52.4-1.1 14.9 3.9 27.4 15.6 38.9 12.5 12.4 29.9 20 54.1 23.7 15.3 2.3 43.5 1.3 58.5-2 39-8.7 60.5-29.7 60.5-59.2 0-14.2-5.3-25.7-16.4-36.3-9.2-8.6-17-13.1-30.4-17.5-14.6-4.8-29.2-6.8-47.7-6.5-8.2.1-16.3.3-18 .5zm32.5 26.9c6.2 1.7 14.6 7 17.7 11.2 5.8 7.9 6.8 11.1 6.8 22.7 0 10.2-.2 11.4-2.9 16.8-3.6 7-8.9 12-16.5 15.5-8 3.8-24.9 4.4-34.8 1.3-9.3-2.8-15.7-8-20.2-16.1-3.5-6.3-3.6-6.8-3.6-17 0-12.4 1.7-17.1 8.9-24.8 10-10.6 27.2-14.3 44.6-9.6zM608 922.5c-5.8.4-12.4.8-14.7.9l-4.3.1v118h51.8l.1-22.1v-22.2l9.8.2c15.8.3 20.4 3.4 26.3 17.8 4.8 11.9 8.7 20.1 11 23.4l2.1 2.9h52.8l-2.4-4.3c-1.3-2.3-4.9-10.3-8-17.7-8.8-20.8-14.4-27.7-25.7-32.1l-4.2-1.6 5.5-1.8c11.5-3.7 22.5-12.1 25.7-19.5 4.8-11.5-1.7-25.9-14.9-32.5-15.6-7.9-27.8-9.7-67.9-10-17.9-.1-37.2.1-43 .5zm66.8 25.4c9.3 4 11.9 11.8 6 18-5.2 5.4-10.4 6.8-26 7.4l-13.8.5v-28.5l14.8.4c11.1.3 15.7.9 19 2.2zm1511.7-25.2c-7.7.4-14.6 1-15.3 1.3-1 .4-1.2 12.4-1.2 57.5 0 31.3.3 57.7.6 58.5.5 1.3 4.3 1.5 26 1.5h25.4v-44h9.1c16.5 0 21.4 3.1 27 17.2 1.9 4.6 5.4 12.3 7.9 17.3l4.5 9 26.8.3 26.8.2-2.5-4.7c-1.3-2.7-4.3-9.3-6.6-14.8-9.4-22.3-15.7-30.5-26-34.2l-4.7-1.7 7.6-3.1c12.4-5 19.1-10.2 22.7-18 4.3-9.1 2.3-18.7-5.5-26.5-8.2-8.2-24-13.7-45.5-15.9-12.5-1.3-56.3-1.2-77.1.1zm68.7 24.7c9.8 3.1 13.2 12.6 6.8 19-4.8 4.7-10.8 6.3-26.2 6.8l-13.8.5v-13.4c0-7.4.3-13.8.8-14.2 1.1-1.2 28.2-.1 32.4 1.3zm-2201-22.2c-.5 1.6-8.6 19-17.9 38.8-27.2 57.7-31.5 66.7-33.9 72.2l-2.4 5.3h53.6l5.3-13.5 5.2-13.5 25 .2 25 .3 5.8 13 5.8 13 28.1.3 28.1.2-7.3-15.2c-4-8.4-16.9-35.2-28.6-59.6l-21.3-44.2H55.2zm43.2 43c4.7 11.7 8.6 21.5 8.6 21.8 0 .3-7.6.5-17 .5-9.3 0-17-.4-17-.8 0-.8 12.7-35.3 15.1-41.1.5-1.3 1.1-2.2 1.3-2 .2.2 4.3 10 9 21.6zm109.2-42c-.3 2.1-1.7 15.7-3.1 30.3-1.4 14.6-2.7 28.3-3 30.5-.2 2.2-1.4 13.2-2.5 24.5s-2.3 22.6-2.6 25.2l-.6 4.8H243l.1-4.8c0-2.6.2-5.8.4-7.2.6-3.8 3.4-44.6 4.1-60.5.4-7.7 1-14.7 1.5-15.5.7-1.3.8-1.2.9.2 0 3.3 10.7 34.6 20.5 60l9.9 25.8h40.4l15.1-32.8c8.3-18 17-37.6 19.4-43.5 2.5-5.9 4.7-11.1 5.1-11.4.3-.4.6 7.2.6 16.8.1 9.6.3 20.8.5 24.9 1 15.4 2.5 43.3 2.5 45.6v2.4h50.6l-1.7-20.8c-2.8-32.9-7.9-95.7-7.9-97 0-.9-8.6-1.2-34.2-1.2l-34.3.1-8.5 18.7c-4.6 10.3-11.6 26.9-15.6 37-3.9 10-7.3 18.5-7.6 18.7-.3.3-2.2-4.8-4.2-11.2-2.1-6.5-8.3-23.4-13.8-37.6l-10.1-25.7h-69.5zM439 982v59.5h129v-26h-77v-22h69v-26h-69v-19h73v-26H439zm319 0v59.5h52v-119h-52zm287.1-53.3c-1.6 3.5-11.7 25.2-22.6 48.3-10.9 23.1-20.4 43.4-21.1 45.2-.8 1.8-3.2 6.9-5.3 11.3l-4 8 27.1-.2 27-.3 5.2-13.3 5.1-13.2h50l5.9 13.5 5.9 13.5h27.8c15.4 0 27.9-.2 27.9-.4s-12.7-26.9-28.3-59.3l-28.3-58.8-34.7-.3-34.8-.2zm43.7 36.8c3.8 9.6 7.8 19.2 8.6 21.2l1.6 3.8h-17.5c-9.6 0-17.5-.2-17.5-.5 0-.2 2.7-7.4 6-15.9 3.3-8.6 6-15.8 6-16 0-2 4.4-11.6 4.9-10.9.4.4 4 8.7 7.9 18.3zM1191 982v59.5h48.3l-.7-35.8c-.3-19.6-.9-38.1-1.2-41-.3-2.8-.4-5.2 0-5.2.3 0 2.4 2.8 4.7 6.2 7.7 11.4 16.8 23 38.7 49.5l21.7 26.3h54.5v-119h-47.2l.5 29.7c.4 16.4 1.2 34 2 39 .7 5.1 1.2 9.2 1.1 9-.1-.1-3.7-5.4-7.9-11.7-9-13.4-9.2-13.6-33.9-43.3l-19-22.7H1191zm221-46v13.5h49v92h52v-92h50v-27h-151zm344-12.8c0 .5 9.7 27.2 21.7 59.5l21.8 58.8h57.4l4.5-14.3c2.4-7.8 6.3-20.1 8.5-27.2 4-12.8 8.3-29.4 9.7-36.8.3-2.1.8-3.6 1-3.5.2.2 1.5 6 2.9 12.8 2.9 13.9 17.3 67.1 18.4 68.3.4.4 13.3.6 28.6.5l28-.3 23.2-58.5c12.8-32.2 23.3-58.8 23.3-59.3 0-.4-11.7-.7-25.9-.7h-25.9l-1.6 5.2c-.9 2.9-5.2 20.1-9.7 38.3-4.5 18.1-8.6 34.8-9.2 37-.9 3.9-1.1 3.4-4.4-12-1.8-8.8-6.4-27.7-10.2-42l-6.8-26h-55.7l-6.3 22c-3.4 12.1-8.5 30.5-11.3 41-2.8 10.4-5.4 19.7-5.7 20.5-.3.8-2.7-7.7-5.3-19-4.1-17.6-11.8-48.8-15.1-61.3l-1-3.7h-27.4c-15.1 0-27.5.3-27.5.7zm264 58.8v59.5h129v-26h-77v-22h69v-26h-69v-19h73v-26h-125z"/></svg>