<svg xmlns="http://www.w3.org/2000/svg" height="800" width="1200" viewBox="-34.8504 -33.3455 302.0368 200.073"><path d="M0 0h232.336v133.382H0zm0 0" fill="#bd3019" fill-rule="evenodd"/><path d="M4.677 4.685h222.982v81.06H4.677zm0 85.745h222.982v38.276H4.677zm0 0" fill="#97002e" fill-rule="evenodd"/><path d="M111.676 103.798h-11.424v1.944h4.803v10.619h1.978v-10.619h4.802v-1.945h-.16zm19.402-.008h-1.827v12.571h1.994v-12.572zm-11.776-.462c-3.276 0-5.48 2.389-5.606 6.102v6.93h1.96v-5.155h7.183v5.156h1.962v-6.923c-.127-3.771-2.238-6.11-5.499-6.11m3.529 5.934h-7.14c.167-2.489 1.457-3.922 3.611-3.922 2.808 0 3.428 2.388 3.529 3.922m-54.878-5.816c-3.63 0-6.588 2.933-6.588 6.537s2.959 6.537 6.588 6.537c3.637 0 6.587-2.933 6.587-6.537s-2.95-6.537-6.587-6.537m0 11.07c-2.523 0-4.576-2.036-4.576-4.533 0-2.506 2.053-4.551 4.576-4.551 2.53 0 4.584 2.045 4.584 4.55 0 2.498-2.053 4.535-4.584 4.535M44.595 103.73h-5.029c-3.562.118-6.36 2.867-6.36 6.261 0 3.436 2.79 6.244 6.335 6.37h5.214v-1.971h-5.189c-2.43-.1-4.35-2.045-4.35-4.4 0-2.346 1.878-4.19 4.375-4.307h5.164v-1.953h-.16zm-5.02 1.794v.16zm18.723-1.726H56.47v4.844h-6.796v-4.844h-1.986v12.562h1.986v-5.783h6.797v5.783h1.986v-12.563h-.16zm32.384 0h-1.778v10.56h-.418c-2.917 0-3.461-2.573-3.529-4.115v-6.152h-1.969v6.177c-.059 1.525-.603 4.09-3.528 4.09h-.42v-10.56h-1.935v12.563h2.355c1.97 0 3.562-.88 4.517-2.481.955 1.6 2.548 2.48 4.509 2.48h2.363v-12.562h-.167zm-5.884 6.453h.16zm78.345-6.805c-3.637 0-6.587 2.933-6.587 6.537s2.95 6.537 6.587 6.537c3.62 0 6.587-2.933 6.587-6.537s-2.966-6.537-6.587-6.537m0 11.07c-2.523 0-4.576-2.036-4.576-4.533 0-2.506 2.053-4.551 4.576-4.551 2.523 0 4.576 2.045 4.576 4.55 0 2.498-2.053 4.535-4.576 4.535m15.245-11.071c-3.637 0-6.596 2.933-6.596 6.537s2.959 6.537 6.596 6.537c3.629 0 6.579-2.933 6.579-6.537s-2.95-6.537-6.579-6.537m0 11.07c-2.523 0-4.584-2.036-4.584-4.533 0-2.506 2.061-4.551 4.584-4.551 2.523 0 4.576 2.045 4.576 4.55 0 2.498-2.053 4.535-4.576 4.535m16.092-5.087c2.229-1.174 3.603-3.177 3.603-5.297v-.453h-2.003v.453c0 2.372-2.682 4.157-5.079 4.3h-1.55v-4.753h-1.986v12.681h1.986v-5.859h2.112c2.422.135 5.196 3.018 5.196 5.406v.453h2.003v-.453c0-2.397-1.793-5.079-4.283-6.478m-40.572-6.102h-4.098c-3.277 0-5.49 2.397-5.615 6.11v6.923h1.97v-5.54h7.893v-1.945h-7.836c.285-2.279 1.542-3.536 3.587-3.536h4.249v-2.012h-.15zm43.473-55.146c-.797-.746-1.811-1.106-3.018-1.106h-14.307c-1.223 0-2.237.36-3.033 1.106-.813.754-1.224 1.768-1.224 3.092v12.823c0 1.065.344 2.037 1.023 2.808.695.771 1.609 1.173 2.715 1.173h15.337c1.115 0 2.028-.402 2.716-1.173.679-.754 1.014-1.727 1.014-2.808V51.274c0-1.349-.394-2.338-1.224-3.092m-12.177 11.297v4.928h-4.71c-.377 0-.797-.134-.797-1.123V59.28h5.507v.2zm0-8.649v5.028h-5.506v-4.106c0-.989.419-1.123.796-1.123h4.71v.201zm9.52 8.65v3.804c0 .99-.435 1.123-.804 1.123h-4.71V59.28h5.514v.2zm0-3.822v.2h-5.514V50.63h4.71c.369 0 .804.133.804 1.122v3.906zm.554-22.948c-.822-.737-1.836-1.106-3.034-1.106h-10.2c-1.207 0-2.22.37-3.017 1.107-.805.754-1.224 1.768-1.224 3.025v4.568c0 1.14.344 2.112 1.023 2.883.679.77 1.592 1.173 2.707 1.173h11.213c1.115 0 2.029-.402 2.716-1.173.687-.771 1.03-1.727 1.03-2.883v-4.568c0-1.248-.41-2.263-1.214-3.025m-2.875 6.855c0 .386-.076.646-.21.78-.084.092-.21.125-.394.125h-9.302c-.26 0-.612 0-.612-.905v-3.78c0-.008 0-.083.134-.268.033-.042.109-.142.36-.142h9.53c.25 0 .318.1.351.142.134.185.143.269.143.269v3.78zM178.33 28.495c.31.168.62.252.938.252h15.881c.31 0 .63-.084.923-.252a2.032 2.032 0 001.08-1.81c0-.788-.452-1.509-1.156-1.844a2 2 0 00-.846-.21h-15.882c-.293 0-.587.076-.863.21a2.034 2.034 0 00-1.14 1.844c0 .763.41 1.458 1.064 1.81m-20.466 0c.293.16.604.252.922.252h12.496c.318 0 .629-.084.93-.252a2.048 2.048 0 001.081-1.81c0-.78-.46-1.509-1.148-1.844a2.012 2.012 0 00-.863-.21h-12.496c-.285 0-.578.076-.846.21a2.044 2.044 0 00-1.157 1.844c0 .763.41 1.458 1.081 1.81m15.471 3.252a2.091 2.091 0 00-.855-.201h-14.876a2.11 2.11 0 00-.863.2 2.034 2.034 0 00-1.148 1.853c0 .763.419 1.458 1.081 1.81.302.168.603.243.93.243h5.289v30.893c0 1.181.955 2.137 2.128 2.137a2.134 2.134 0 002.13-2.137V35.652h5.328c.31 0 .629-.075.93-.243a2.033 2.033 0 001.065-1.81c0-.796-.427-1.508-1.14-1.852" fill="#fff"/><path d="M158.668 39.03c-1.123 0-2.02.788-2.02 1.768v18.79c0 .99.897 1.786 2.02 1.786 1.114 0 2.011-.797 2.011-1.786v-18.79c0-.98-.897-1.768-2.011-1.768m12.705 0c-1.106 0-2.011.788-2.011 1.768v18.79c0 .99.905 1.786 2.011 1.786 1.115 0 2.028-.797 2.028-1.786v-18.79c0-.98-.913-1.768-2.028-1.768M134.9 64.44l-1.425-1.013c-2.59-1.752-5.607-4.853-8.817-9.278-3.101-4.274-5.163-8.934-6.386-14.23h15.412c.428 0 .83-.126 1.182-.386a2.125 2.125 0 00.821-1.66c0-.653-.302-1.265-.821-1.659a2.02 2.02 0 00-1.182-.394h-15.589v-9.965c0-1.148-1.005-2.053-2.27-2.053-1.283 0-2.28.905-2.28 2.053v9.965H97.948c-.42 0-.83.143-1.173.394a2.108 2.108 0 00-.83 1.66c0 .653.318 1.265.83 1.659.343.26.754.385 1.173.385h15.379c-1.224 5.297-3.235 9.957-6.336 14.231-1.66 2.263-3.235 4.19-4.744 5.766-1.441 1.492-2.816 2.665-4.073 3.512l-1.441 1.014-.151.134c-.436.444-.57.914-.57 1.458 0 1.048.763 1.945 1.768 2.096.168.05.453.05.612.033.67-.109 1.592-.436 4.786-3.294 1.542-1.366 3.075-3.025 4.6-4.953a62.326 62.326 0 002.64-3.62c2.238-3.32 4.049-6.655 5.406-9.94 1.341 3.285 3.16 6.62 5.406 9.94 2.355 3.52 4.794 6.403 7.233 8.573 3.185 2.858 4.123 3.185 4.794 3.294.142.017.427.017.595-.033 1.014-.151 1.785-1.048 1.785-2.096 0-.544-.151-1.014-.57-1.458l-.168-.134zM56.035 29.065h-.017c-1.14.042-2.028 1.006-2.028 2.18v1.172h-7.97c-1.124 0-2.046.94-2.046 2.104 0 1.081.822 1.97 1.844 2.078v.017h8.172v3.672h-9.186c-1.098 0-1.995.87-2.045 2.01.017-.016 0 0 0 0 0 .017-.008.05-.008.084 0 .025.008.059.008.084v.008c.05 1.132.947 2.012 2.045 2.012h22.637c1.09 0 1.995-.88 2.037-2.012v-.008c.008-.025.008-.059.008-.084 0-.033 0-.067-.008-.084v-.016c-.042-1.123-.947-1.995-2.037-1.995h-9.185v-3.671h8.162V36.6c.47-.05.914-.244 1.25-.604a2.11 2.11 0 00.603-1.475c0-.57-.218-1.09-.604-1.492a2.037 2.037 0 00-1.45-.612h-7.961v-1.173c0-1.173-.897-2.137-2.045-2.179h-.176zm14.784-.092v33.423c0 1.022-.654 1.835-1.106 1.835-.168 0-.637-.042-1.987-.301a19.54 19.54 0 01-1.165-.277l-.469-.126c-.092-.008-.184-.025-.285-.025-.637 0-1.24.302-1.651.847a2.157 2.157 0 00-.453 1.316c0 .796.394 1.609 1.123 1.91.243.093.378.151.629.218l.117.042c1.568.461 2.75.73 3.713.746 1.668.017 3.042-.52 4.082-1.534 1.039-1.022 1.592-2.53 1.609-4.458 0 0 .017-3.244.017-4.09l.017-.193V27.833l-.017-.184c-.117-2.364-2.037-4.258-4.375-4.258-.042 0-.084.017-.126.017-.025 0-.033 0-.05.008-.025-.008-.033-.008-.058-.008-.034 0-.084-.017-.118-.017H41.587c-.059 0-.118 0-.151.017h-.067c-.05 0-.093-.017-.151-.017-2.104 0-3.906 1.542-4.3 3.654a3.27 3.27 0 00-.083.738v8.322h.008l.009 12.144c.025 6.152-.93 11.432-2.85 15.69-.335.795-.477 1.34-.477 1.793 0 .645.217 1.215.628 1.609.42.444.922.662 1.509.662.503 0 .98-.193 1.433-.562.285-.251.754-.896 1.768-3.67a35.198 35.198 0 001.668-6.253c.327-1.944.494-3.989.52-6.227v-.721l.05-14.675v-3.52l.033-4.131c0-.193.168-.386.369-.386h28.738c.201 0 .344.042.42.126.092.1.175.235.167.662l-.009.327zm-4.4 27.8V51.71c0-1.265-.428-2.304-1.249-3.076-.821-.745-1.852-1.13-3.093-1.13H50.168c-1.223 0-2.271.385-3.092 1.13-.83.772-1.25 1.81-1.25 3.076v5.062c0 1.174.353 2.171 1.057 2.942.696.796 1.626 1.199 2.766 1.199h12.957c1.13 0 2.053-.403 2.748-1.199.704-.771 1.065-1.768 1.065-2.942m-4.182-.746c0 .922-.369.922-.604.922H50.621c-.235 0-.629 0-.629-.922V51.77c0-.017.009-.16.126-.285.033-.034.134-.126.385-.126h11.23c.26 0 .353.092.403.134.1.118.1.277.1.277v4.257zm0 0" fill="#fff"/></svg>