<svg xmlns="http://www.w3.org/2000/svg" height="800" width="1200" clip-rule="evenodd" fill-rule="evenodd" stroke-linejoin="round" stroke-miterlimit="1.4142" viewBox="-31.1511 -14.77125 269.9762 88.6275"><g fill-rule="nonzero"><path d="M192.78 48.112c-1.745 0-2.9-.592-3.56-.957v-9.094c.66-.365 1.815-.955 3.56-.955 3.23 0 3.727 2.438 3.727 5.503 0 3.031-.497 5.503-3.727 5.503zm.859 3.13c4.809 0 6.588-3.264 6.588-8.633 0-5.405-1.779-8.635-6.588-8.635-2.208 0-3.888.66-5.338 1.716l-.597-1.32h-2.172v24.715h3.688v-9.127c1.188.756 2.77 1.284 4.419 1.284zm-25.51-16.872v11.633c0 3.163 1.486 5.239 5.671 5.239 1.779 0 3.658-.562 5.338-1.716l.595 1.32h2.172V34.37h-3.689v12.785c-.89.494-2.076.957-3.789.957-1.747 0-2.602-.758-2.602-2.44V34.37zm-10.344 16.872c5.866 0 7.315-3.559 7.315-8.633 0-5.076-1.449-8.635-7.315-8.635-5.865 0-7.315 3.559-7.315 8.635 0 5.074 1.45 8.633 7.315 8.633zm0-3.096c-3.129 0-3.593-2.011-3.593-5.537 0-3.525.464-5.537 3.593-5.537 3.13 0 3.593 2.012 3.593 5.537 0 3.526-.463 5.537-3.593 5.537zm-8.865-13.975c-.461-.099-1.056-.197-1.745-.197-2.143 0-3.989.725-5.208 1.716l-.591-1.32H139.2v16.476h3.691v-12.72c.823-.528 2.273-.989 4.217-.989.756 0 1.416.067 1.812.199zm-21.255 17.071c3.526 0 6.492-.823 7.776-1.514V37.236h-8.071v3.328h4.382v6.754c-.724.266-2.011.463-3.525.463-5.009 0-6.823-3.23-6.823-9.293 0-5.865 1.747-9.292 6.823-9.292 2.371 0 4.315.492 6.624 1.449v-3.624c-1.419-.691-3.691-1.286-7.087-1.286-7.448 0-10.15 4.977-10.15 12.753s2.702 12.754 10.051 12.754z" fill="#db892a"/><path d="M107.136 37.171c2.868 0 2.997 1.977 2.997 4.217h-6.593c.135-2.47.893-4.217 3.596-4.217zm-7.316 5.436c0 5.342 1.978 8.635 7.481 8.635 1.781 0 3.919-.23 5.801-1.022v-3.164c-1.452.627-3.166.989-5.242.989-3.36 0-4.25-1.613-4.32-4.085h10.251c.033-.528.065-1.056.065-1.617 0-4.546-.92-8.369-6.72-8.369-5.374 0-7.316 3.329-7.316 8.633zm-2.604 5.371c-.396.067-.89.134-1.449.134-1.877 0-2.703-.792-2.703-2.438V37.5h4.647v-3.13h-4.647v-4.975l-3.691 1.051v3.924l-3 .857V37.5h3v8.601c0 3.559 2.143 5.141 5.801 5.141.559 0 1.481-.098 2.042-.23zm-13.248 3.098c.396 0 .725-.064.725-.064v-3c-1.053 0-1.382-.329-1.382-1.253V26.131H79.62v20.661c0 2.835 1.351 4.284 4.348 4.284zM61.891 34.37V46c0 3.166 1.481 5.242 5.669 5.242 1.778 0 3.657-.559 5.337-1.714l.593 1.318h2.174V34.37h-3.691v12.785c-.888.497-2.073.957-3.789.957-1.748 0-2.602-.758-2.602-2.438V34.37zm-14.765-4.846h4.416c3.691 0 4.385 2.506 4.385 4.352 0 1.845-.694 4.351-4.385 4.351h-4.416zm0 12.063h4.25c6.363 0 8.571-3.658 8.571-7.711 0-4.054-2.208-7.745-8.571-7.745h-7.941v24.715h3.691zm-17.321-7.373h-2.044v-5.276h2.044zm-8.33 10.694h-2.043v-5.275h2.043zm-6.173-18.079h-2.043v-5.275h2.043zM21.84.134V0l-.075.067L21.688 0v.134L0 20.647l.076-.019h5.739v30.158H37.42V20.628h6.032l.074.019z" fill="#0e3053"/><path d="M201.835 32.901v3.547h-.247v-3.547h-1.366V32.7h2.978v.201zm3.912 3.293l-1.517-3.074.022 3.328h-.226V32.7h.226l1.598 3.225 1.596-3.225h.228v3.748h-.228l.024-3.321-1.514 3.067z" fill="#db892a"/></g></svg>